<svg width="87" height="101" viewBox="0 0 87 101" fill="none" xmlns="http://www.w3.org/2000/svg">
<path d="M87 18C87 14.5714 84.2143 11.7857 80.7857 11.7857H45.6429V2.14286C45.6429 0.964285 44.6786 0 43.5 0C42.3214 0 41.3571 0.964285 41.3571 2.14286V11.6786H6.21429C2.78571 11.6786 0 14.4643 0 17.8929V68.1429C0 71.5714 2.78571 74.3571 6.21429 74.3571H25.8214L14.6786 95.25C14.1429 96.3214 14.4643 97.6072 15.5357 98.1429C15.8571 98.3572 16.1786 98.3572 16.5 98.3572C17.25 98.3572 18 97.9286 18.4286 97.1786L30.6429 74.4643H41.3571V98.1429C41.3571 99.3214 42.3214 100.286 43.5 100.286C44.6786 100.286 45.6429 99.3214 45.6429 98.1429V74.4643H56.3571L68.5714 97.1786C69 97.9286 69.75 98.3572 70.5 98.3572C70.8214 98.3572 71.1429 98.25 71.4643 98.1429C72.5357 97.6072 72.8571 96.3214 72.3214 95.25L61.1786 74.4643H80.7857C84.2143 74.4643 87 71.6786 87 68.25V18ZM82.7143 68.25C82.7143 69.3214 81.8571 70.1786 80.7857 70.1786H6.21429C5.14286 70.1786 4.28571 69.3214 4.28571 68.25V18C4.28571 16.9286 5.14286 16.0714 6.21429 16.0714H80.7857C81.8571 16.0714 82.7143 16.9286 82.7143 18V68.25Z" fill="#0B0B0B"/>
</svg>
