<svg width="185" height="56" viewBox="0 0 185 56" fill="none" xmlns="http://www.w3.org/2000/svg">
<path d="M183.279 48.9708C183.279 51.8708 180.941 54.2197 178.05 54.2197H6.92062C4.03049 54.2197 1.68466 51.8708 1.68466 48.9708V7.11223C1.68466 4.21367 4.0306 1.85645 6.92062 1.85645H178.049C180.941 1.85645 183.278 4.21367 183.278 7.11223L183.279 48.9708Z" fill="white"/>
<path d="M178.05 55.4408H6.9207C3.36496 55.4408 0.470734 52.5395 0.470734 48.9708V7.1136C0.470734 3.54213 3.36496 0.636719 6.9207 0.636719H178.049C181.6 0.636719 184.499 3.54213 184.499 7.1136V48.9708C184.501 52.5395 181.603 55.4408 178.05 55.4408Z" fill="#A6A6A6"/>
<path d="M183.279 48.9708C183.279 51.8708 180.941 54.2197 178.05 54.2197H6.92062C4.03049 54.2197 1.68466 51.8708 1.68466 48.9708V7.11223C1.68466 4.21367 4.0306 1.85645 6.92062 1.85645H178.049C180.941 1.85645 183.278 4.21367 183.278 7.11223L183.279 48.9708Z" fill="black"/>
<path d="M41.5628 27.7505C41.5233 23.3335 45.1622 21.1846 45.3286 21.0845C43.2677 18.0653 40.0735 17.6528 38.951 17.6199C36.2682 17.3362 33.6659 19.233 32.2992 19.233C30.9053 19.233 28.8008 17.6473 26.5326 17.6939C23.6138 17.7392 20.8833 19.4372 19.3857 22.074C16.2951 27.4504 18.6 35.3512 21.5612 39.697C23.0423 41.8267 24.7732 44.2018 27.0386 44.1182C29.255 44.0277 30.0829 42.6997 32.7575 42.6997C35.4075 42.6997 36.185 44.1182 38.4954 44.0647C40.8742 44.0277 42.3716 41.9268 43.8011 39.7792C45.5128 37.3411 46.2001 34.9373 46.2275 34.814C46.1729 34.7948 41.6092 33.0433 41.5628 27.7505ZM37.1983 14.7611C38.3902 13.2632 39.206 11.2253 38.9796 9.15723C37.2541 9.23397 35.0965 10.3564 33.8539 11.8214C32.7545 13.1124 31.7725 15.2285 32.0262 17.2184C33.9644 17.3637 35.9544 16.2358 37.1983 14.7611Z" fill="white"/>
<path d="M178.05 0.636719H86.3879L122.29 55.4408H178.05C181.602 55.4408 184.5 52.5395 184.5 48.9667V7.1136C184.501 3.54213 181.603 0.636719 178.05 0.636719Z" fill="url(#paint0_linear)"/>
<path d="M73.6653 43.8128H70.5679L68.8712 38.4556H62.9735L61.3572 43.8128H58.3417L64.1861 25.5744H67.795L73.6653 43.8128ZM68.3598 36.208L66.8254 31.4456C66.6631 30.9591 66.3576 29.8133 65.9101 28.0098H65.8557C65.6756 28.7855 65.3878 29.9312 64.9937 31.4456L63.4852 36.208H68.3598ZM88.6658 37.0755C88.6658 39.3121 88.0616 41.08 86.8517 42.378C85.7688 43.5332 84.4227 44.1103 82.8172 44.1103C81.0837 44.1103 79.8371 43.4893 79.0801 42.2451V49.1454H76.1722V34.9841C76.1722 33.5793 76.1355 32.139 76.0646 30.6617H78.6219L78.7842 32.7462H78.8387C79.8084 31.1756 81.2801 30.3902 83.255 30.3902C84.799 30.3902 86.0879 31.0028 87.119 32.2294C88.1488 33.4588 88.6658 35.0732 88.6658 37.0755ZM85.7033 37.1824C85.7033 35.9024 85.4168 34.8471 84.8413 34.0152C84.2125 33.1504 83.3682 32.7175 82.3098 32.7175C81.5924 32.7175 80.9405 32.9586 80.3581 33.4341C79.7743 33.9138 79.3924 34.5401 79.2139 35.3158C79.1238 35.6776 79.0788 35.9723 79.0788 36.2054V38.3994C79.0788 39.3546 79.3707 40.1619 79.9545 40.8225C80.5382 41.4803 81.2966 41.8105 82.2295 41.8105C83.3248 41.8105 84.1773 41.3844 84.7868 40.5387C85.3977 39.6904 85.7033 38.5721 85.7033 37.1824ZM103.719 37.0755C103.719 39.3121 103.115 41.08 101.905 42.378C100.821 43.5332 99.4761 44.1103 97.8694 44.1103C96.1359 44.1103 94.8892 43.4893 94.1323 42.2451V49.1454H91.2244V34.9841C91.2244 33.5793 91.1876 32.139 91.1166 30.6617H93.674L93.8363 32.7462H93.8909C94.8592 31.1756 96.3309 30.3902 98.3071 30.3902C99.8497 30.3902 101.139 31.0028 102.173 32.2294C103.201 33.4588 103.719 35.0732 103.719 37.0755ZM100.755 37.1824C100.755 35.9024 100.468 34.8471 99.8921 34.0152C99.2633 33.1504 98.4218 32.7175 97.3634 32.7175C96.646 32.7175 95.994 32.9586 95.4089 33.4341C94.8251 33.9138 94.4447 34.5401 94.2659 35.3158C94.1773 35.6776 94.1295 35.9723 94.1295 36.2054V38.3994C94.1295 39.3546 94.4228 40.1619 95.0038 40.8225C95.5876 41.479 96.3459 41.8105 97.2816 41.8105C98.378 41.8105 99.2305 41.3844 99.8389 40.5387C100.45 39.6904 100.755 38.5721 100.755 37.1824ZM120.55 38.6968C120.55 40.2495 120.01 41.5117 118.937 42.4861C117.755 43.5496 116.106 44.0828 113.992 44.0828C112.039 44.0828 110.473 43.7045 109.292 42.9466L109.965 40.5113C111.24 41.2705 112.641 41.6488 114.165 41.6488C115.262 41.6488 116.115 41.3994 116.723 40.9046C117.332 40.4085 117.641 39.7452 117.641 38.9174C117.641 38.1761 117.386 37.5552 116.885 37.0496C116.382 36.5452 115.55 36.0752 114.381 35.6435C111.203 34.4525 109.613 32.7106 109.613 30.4192C109.613 28.9226 110.175 27.6974 111.296 26.7395C112.417 25.7829 113.904 25.3047 115.753 25.3047C117.405 25.3047 118.781 25.5939 119.874 26.1708L119.144 28.5526C118.115 27.9935 116.955 27.7139 115.656 27.7139C114.631 27.7139 113.826 27.9674 113.25 28.4717C112.766 28.9226 112.521 29.4723 112.521 30.1245C112.521 30.8442 112.8 31.4417 113.357 31.9104C113.839 32.342 114.721 32.8122 115.994 33.3165C117.558 33.9497 118.706 34.687 119.441 35.5339C120.182 36.3807 120.55 37.4373 120.55 38.6968ZM130.189 32.8544H126.984V39.2395C126.984 40.8635 127.548 41.6735 128.68 41.6735C129.2 41.6735 129.631 41.6295 129.972 41.5378L130.052 43.7566C129.48 43.9719 128.725 44.08 127.791 44.08C126.643 44.08 125.745 43.7278 125.097 43.0234C124.452 42.3189 124.128 41.139 124.128 39.4779V32.8489H122.218V30.6562H124.128V28.2482L126.984 27.3821V30.6562H130.189V32.8544ZM144.622 37.1289C144.622 39.1503 144.046 40.8099 142.898 42.1079C141.696 43.4441 140.098 44.1102 138.105 44.1102C136.182 44.1102 134.653 43.4701 133.513 42.1915C132.372 40.91 131.802 39.2957 131.802 37.3482C131.802 35.3102 132.391 33.6411 133.566 32.3432C134.743 31.044 136.328 30.3945 138.32 30.3945C140.241 30.3945 141.784 31.0358 142.951 32.3158C144.067 33.5575 144.622 35.1609 144.622 37.1289ZM141.607 37.1961C141.607 35.9913 141.348 34.958 140.829 34.0932C140.219 33.0489 139.346 32.5269 138.215 32.5269C137.051 32.5269 136.157 33.0489 135.549 34.0932C135.028 34.958 134.769 36.0092 134.769 37.2508C134.769 38.4569 135.028 39.4929 135.549 40.3551C136.178 41.3994 137.055 41.9215 138.191 41.9215C139.302 41.9215 140.174 41.3884 140.804 40.329C141.339 39.4437 141.607 38.4035 141.607 37.1961ZM154.078 33.2313C153.79 33.1777 153.482 33.1503 153.161 33.1503C152.138 33.1503 151.347 33.5369 150.791 34.3152C150.308 35.0005 150.065 35.8666 150.065 36.9123V43.8127H147.157V34.8032C147.157 33.2889 147.129 31.9074 147.073 30.663H149.606L149.712 33.1791H149.793C150.101 32.3145 150.584 31.6168 151.246 31.0946C151.894 30.6247 152.594 30.3902 153.348 30.3902C153.617 30.3902 153.86 30.4094 154.075 30.4438L154.078 33.2313ZM167.083 36.615C167.083 37.1385 167.049 37.5797 166.976 37.9403H158.253C158.285 39.2395 158.708 40.2344 159.518 40.9197C160.254 41.531 161.204 41.8379 162.372 41.8379C163.663 41.8379 164.842 41.6323 165.902 41.2171L166.357 43.244C165.119 43.7867 163.657 44.0567 161.969 44.0567C159.94 44.0567 158.347 43.4563 157.187 42.2586C156.031 41.0595 155.451 39.4478 155.451 37.4291C155.451 35.4473 155.99 33.7959 157.069 32.4789C158.198 31.0728 159.724 30.3696 161.645 30.3696C163.531 30.3696 164.959 31.0727 165.929 32.4789C166.697 33.5931 167.083 34.9746 167.083 36.615ZM164.31 35.8571C164.33 34.9896 164.139 34.2427 163.745 33.6109C163.242 32.7969 162.467 32.3912 161.429 32.3912C160.479 32.3912 159.704 32.7873 159.115 33.5821C158.631 34.2139 158.343 34.9732 158.254 35.8544L164.31 35.8571Z" fill="white"/>
<path d="M66.9577 19.0461H65.4341L64.6007 16.4134H61.7024L60.9072 19.0461H59.4247L62.2971 10.0818H64.0702L66.9577 19.0461ZM64.3498 15.3088L63.5955 12.968C63.5164 12.7282 63.3705 12.1704 63.1454 11.2796H63.1181C63.0254 11.6647 62.8931 12.2238 62.694 12.968L61.9534 15.3088H64.3498ZM74.1399 12.5829L71.704 19.0461H70.314L67.9573 12.5829H69.4931L70.5924 16.0009C70.7779 16.5724 70.9361 17.1178 71.0548 17.6359H71.0943C71.2008 17.1713 71.3589 16.6258 71.5567 16.0009L72.6424 12.5829H74.1399ZM79.3256 19.0461L79.2192 18.3018H79.1795C78.743 18.9007 78.1075 19.1926 77.3001 19.1926C76.1489 19.1926 75.3278 18.3813 75.3278 17.2904C75.3278 15.6951 76.704 14.8701 79.0868 14.8701V14.7509C79.0868 13.8998 78.6367 13.4736 77.7501 13.4736C77.1144 13.4736 76.5581 13.6339 76.0698 13.9533L75.7791 13.009C76.3752 12.6362 77.1159 12.4499 77.9901 12.4499C79.6704 12.4499 80.5188 13.3407 80.5188 15.1237V17.5042C80.5188 18.1565 80.546 18.6622 80.6115 19.0473L79.3256 19.0461ZM79.1264 15.8268C77.5376 15.8268 76.7437 16.2133 76.7437 17.1302C76.7437 17.8085 77.1542 18.1402 77.723 18.1402C78.4512 18.1402 79.1264 17.5824 79.1264 16.8245V15.8268ZM83.7024 11.518C83.2264 11.518 82.8554 11.1453 82.8554 10.6533C82.8554 10.1613 83.2387 9.8022 83.7296 9.8022C84.2193 9.8022 84.6162 10.1613 84.6027 10.6533C84.6027 11.1727 84.233 11.518 83.7024 11.518ZM84.4443 19.0461H83.0149V12.5829H84.4443V19.0461ZM88.4133 19.0461H86.9839V9.61719H88.4133V19.0461ZM94.4882 19.0461L94.3817 18.3018H94.3423C93.9058 18.9007 93.2702 19.1926 92.4628 19.1926C91.3117 19.1926 90.4906 18.3813 90.4906 17.2904C90.4906 15.6951 91.8667 14.8701 94.2494 14.8701V14.7509C94.2494 13.8998 93.7993 13.4736 92.9128 13.4736C92.2772 13.4736 91.7207 13.6339 91.2324 13.9533L90.9407 13.0076C91.5367 12.6349 92.2773 12.4485 93.1516 12.4485C94.8319 12.4485 95.6802 13.3393 95.6802 15.1223V17.5028C95.6802 18.1552 95.7089 18.6609 95.7717 19.046H94.4882V19.0461ZM94.2891 15.8268C92.7001 15.8268 91.9063 16.2133 91.9063 17.1302C91.9063 17.8085 92.3167 18.1402 92.8855 18.1402C93.6138 18.1402 94.2891 17.5824 94.2891 16.8245V15.8268ZM101.472 19.1927C100.559 19.1927 99.8852 18.8062 99.4488 18.0484H99.4201L99.3383 19.0461H98.1203C98.1599 18.528 98.1735 17.9415 98.1735 17.3042V9.61719H99.6043V13.5285H99.6315C100.056 12.8104 100.742 12.4513 101.683 12.4513C103.232 12.4513 104.318 13.7821 104.318 15.7227C104.318 17.7291 103.112 19.1927 101.472 19.1927ZM101.181 13.5792C100.359 13.5792 99.6057 14.2974 99.6057 15.2951V16.4257C99.6057 17.3165 100.282 18.0484 101.157 18.0484C102.227 18.0484 102.864 17.1713 102.864 15.7747C102.863 14.4714 102.2 13.5792 101.181 13.5792ZM107.86 19.0461H106.432V9.61719H107.86V19.0461ZM115.641 16.1599H111.35C111.379 17.3837 112.184 18.0744 113.376 18.0744C114.011 18.0744 114.594 17.9675 115.109 17.7688L115.332 18.7665C114.723 19.0324 114.009 19.1653 113.175 19.1653C111.162 19.1653 109.971 17.888 109.971 15.9077C109.971 13.926 111.191 12.4363 113.014 12.4363C114.655 12.4363 115.689 13.6601 115.689 15.5089C115.694 15.761 115.682 15.9872 115.641 16.1599ZM114.33 15.1361C114.33 14.1384 113.827 13.434 112.913 13.434C112.092 13.434 111.446 14.1521 111.35 15.1361H114.33ZM124.305 19.1927C122.425 19.1927 121.207 17.7825 121.207 15.8679C121.207 13.8725 122.451 12.45 124.413 12.45C126.263 12.45 127.51 13.793 127.51 15.7624C127.51 17.7825 126.225 19.1927 124.305 19.1927ZM124.359 13.4998C123.327 13.4998 122.665 14.4701 122.665 15.8268C122.665 17.1576 123.341 18.1279 124.346 18.1279C125.351 18.1279 126.025 17.0904 126.025 15.7994C126.026 14.4838 125.365 13.4998 124.359 13.4998ZM135.194 19.0461H133.766V15.3348C133.766 14.1918 133.33 13.619 132.469 13.619C131.622 13.619 131.039 14.3508 131.039 15.2019V19.0461H129.611V14.4303C129.611 13.8588 129.596 13.2462 129.557 12.5815H130.815L130.882 13.5792H130.921C131.303 12.8885 132.086 12.4486 132.959 12.4486C134.308 12.4486 135.194 13.486 135.194 15.1745V19.0461H135.194ZM144.547 13.6601H142.974V16.7985C142.974 17.5975 143.251 17.9963 143.806 17.9963C144.058 17.9963 144.271 17.9689 144.442 17.9291L144.481 19.02C144.203 19.1271 143.831 19.1804 143.371 19.1804C142.244 19.1804 141.572 18.5555 141.572 16.9191V13.6601H140.634V12.5829H141.572V11.3988L142.974 10.9726V12.5815H144.547V13.6601ZM152.117 19.0461H150.686V15.3622C150.686 14.2056 150.249 13.6204 149.389 13.6204C148.648 13.6204 147.961 14.1261 147.961 15.1498V19.0461H146.53V9.61719H147.961V13.4998H147.988C148.438 12.7953 149.087 12.4486 149.921 12.4486C151.283 12.4486 152.117 13.5121 152.117 15.2019V19.0461ZM159.42 16.1599H155.131C155.158 17.3837 155.963 18.0744 157.155 18.0744C157.792 18.0744 158.373 17.9675 158.888 17.7688L159.112 18.7665C158.504 19.0324 157.788 19.1653 156.954 19.1653C154.941 19.1653 153.751 17.888 153.751 15.9077C153.751 13.926 154.97 12.4363 156.794 12.4363C158.434 12.4363 159.468 13.6601 159.468 15.5089C159.473 15.761 159.46 15.9872 159.42 16.1599ZM158.109 15.1361C158.109 14.1384 157.608 13.434 156.694 13.434C155.871 13.434 155.225 14.1521 155.131 15.1361H158.109Z" fill="white"/>
<defs>
<linearGradient id="paint0_linear" x1="135.445" y1="55.5897" x2="135.445" y2="6.18944" gradientUnits="userSpaceOnUse">
<stop stop-color="#1A1A1A" stop-opacity="0.1"/>
<stop offset="0.123" stop-color="#212121" stop-opacity="0.151"/>
<stop offset="0.308" stop-color="#353535" stop-opacity="0.227"/>
<stop offset="0.532" stop-color="#575757" stop-opacity="0.318"/>
<stop offset="0.783" stop-color="#858585" stop-opacity="0.421"/>
<stop offset="1" stop-color="#B3B3B3" stop-opacity="0.51"/>
</linearGradient>
</defs>
</svg>
