<svg width="88" height="89" viewBox="0 0 88 89" fill="none" xmlns="http://www.w3.org/2000/svg">
<circle cx="44" cy="44.7424" r="44" fill="#E8F0FB"/>
<path d="M45.9435 57.8346C45.9435 59.7191 46.5024 61.5613 47.5493 63.1282C48.5963 64.6951 50.0844 65.9164 51.8255 66.6376C53.5665 67.3587 55.4823 67.5474 57.3306 67.1798C59.1789 66.8121 60.8767 65.9046 62.2092 64.5721C63.5418 63.2396 64.4493 61.5418 64.8169 59.6935C65.1845 57.8452 64.9959 55.9294 64.2747 54.1883C63.5535 52.4473 62.3323 50.9592 60.7654 49.9122C59.1985 48.8652 57.3563 48.3064 55.4718 48.3064C52.9456 48.3092 50.5237 49.314 48.7374 51.1003C46.9512 52.8866 45.9464 55.3085 45.9435 57.8346ZM49.9136 57.0406H54.6777V52.2765C54.6777 52.0659 54.7614 51.8639 54.9103 51.715C55.0592 51.5661 55.2612 51.4825 55.4718 51.4825C55.6823 51.4825 55.8843 51.5661 56.0332 51.715C56.1821 51.8639 56.2658 52.0659 56.2658 52.2765V57.0406H61.0299C61.2405 57.0406 61.4424 57.1243 61.5913 57.2732C61.7403 57.4221 61.8239 57.624 61.8239 57.8346C61.8239 58.0452 61.7403 58.2472 61.5913 58.3961C61.4424 58.545 61.2405 58.6286 61.0299 58.6286H56.2658V63.3928C56.2658 63.6033 56.1821 63.8053 56.0332 63.9542C55.8843 64.1031 55.6823 64.1868 55.4718 64.1868C55.2612 64.1868 55.0592 64.1031 54.9103 63.9542C54.7614 63.8053 54.6777 63.6033 54.6777 63.3928V58.6286H49.9136C49.703 58.6286 49.5011 58.545 49.3522 58.3961C49.2033 58.2472 49.1196 58.0452 49.1196 57.8346C49.1196 57.624 49.2033 57.4221 49.3522 57.2732C49.5011 57.1243 49.703 57.0406 49.9136 57.0406Z" fill="#2F80ED"/>
<path d="M46.0031 63.6521C45.0744 62.1426 44.5203 60.4328 44.387 58.6655C44.2537 56.8982 44.5452 55.1246 45.237 53.4929C45.9288 51.8611 47.0009 50.4186 48.3638 49.2856C49.7267 48.1526 51.3409 47.3621 53.0716 46.9801C49.9831 42.7622 45.4185 40.3662 40.3854 40.3662C35.8673 40.3662 31.6931 42.3001 28.632 45.8117C25.5489 49.3484 23.8116 54.2779 23.7152 59.7359C25.538 60.6551 33.0221 64.1868 40.3854 64.1868C42.2704 64.1798 44.1507 64.0009 46.0031 63.6521Z" fill="#2F80ED"/>
<path d="M40.3854 38.7783C44.7707 38.7783 48.3256 35.2234 48.3256 30.8381C48.3256 26.4529 44.7707 22.8979 40.3854 22.8979C36.0002 22.8979 32.4453 26.4529 32.4453 30.8381C32.4453 35.2234 36.0002 38.7783 40.3854 38.7783Z" fill="#2F80ED"/>
</svg>
