<svg width="85" height="89" viewBox="0 0 85 89" fill="none" xmlns="http://www.w3.org/2000/svg">
<path d="M49.674 77.72C50.19 77.729 50.707 77.742 51.222 77.742C70.982 77.742 84.752 71.054 84.752 65.052V54.304C79.199 59.607 67.248 63.272 52.927 63.543C52.965 69.783 51.761 73.712 49.674 77.72ZM71.817 67.912C74.508 67.124 76.914 66.183 78.969 65.116C79.515 64.834 80.188 65.046 80.472 65.592C80.755 66.138 80.543 66.811 79.996 67.095C77.814 68.228 75.253 69.158 72.444 70.051C71.963 70.204 71.203 69.781 71.061 69.295C70.887 68.703 71.226 68.085 71.817 67.912ZM56.494 70.43C59.144 70.277 61.75 69.997 64.241 69.598C64.849 69.499 65.42 69.914 65.518 70.522C65.616 71.129 65.202 71.701 64.594 71.798C62.03 72.209 59.35 72.546 56.623 72.656C55.953 72.683 55.48 72.2 55.447 71.607C55.411 70.992 55.88 70.466 56.494 70.43ZM46.493 46.104C49.929 50.357 52.196 55.591 52.791 61.317C67.967 61.032 80.964 56.638 84.753 50.934V36.988C76.342 44.896 58.025 47.055 46.493 46.104ZM71.817 50.015C74.508 49.227 76.914 48.286 78.969 47.219C79.515 46.936 80.188 47.148 80.472 47.695C80.755 48.241 80.543 48.914 79.996 49.198C77.814 50.331 75.253 51.26 72.444 52.154C71.908 52.325 71.203 51.884 71.061 51.398C70.887 50.807 71.226 50.188 71.817 50.015ZM56.494 52.533C59.144 52.38 61.75 52.1 64.241 51.701C64.849 51.598 65.42 52.017 65.518 52.625C65.616 53.232 65.202 53.804 64.594 53.901C62.03 54.312 59.35 54.649 56.623 54.759C56.059 54.782 55.48 54.303 55.447 53.71C55.411 53.096 55.88 52.569 56.494 52.533ZM51.222 28.205C35.733 28.205 22.832 24.309 17.691 18.688V35.939C19.686 35.505 21.754 35.27 23.876 35.27C31.854 35.27 39.09 38.502 44.348 43.723C46.6 43.909 48.902 44.017 51.222 44.017C67.065 44.017 80.833 39.518 84.752 33.618V18.689C79.61 24.31 66.71 28.205 51.222 28.205ZM34.091 33.998C33.964 34.502 33.363 34.984 32.737 34.804C29.948 34 27.347 33.216 25.078 32.209C24.515 31.959 24.262 31.301 24.511 30.738C24.76 30.178 25.417 29.922 25.981 30.172C28.137 31.129 30.594 31.96 33.285 32.644C33.883 32.795 34.244 33.402 34.091 33.998ZM48.655 36.957C48.642 36.957 48.629 36.957 48.616 36.956C45.903 36.864 43.216 36.644 40.63 36.302C40.019 36.221 39.591 35.662 39.671 35.052C39.751 34.443 40.31 34.01 40.921 34.093C43.436 34.425 46.051 34.639 48.692 34.729C49.307 34.75 49.789 35.265 49.767 35.881C49.748 36.483 49.252 36.957 48.655 36.957ZM64.593 36.005C62.029 36.416 59.346 36.697 56.622 36.863C56.026 36.899 55.479 36.407 55.446 35.814C55.41 35.2 55.879 34.673 56.494 34.637C59.144 34.484 61.75 34.204 64.241 33.805C64.845 33.703 65.42 34.121 65.518 34.729C65.615 35.335 65.201 35.907 64.593 36.005ZM79.996 31.301C77.815 32.433 75.25 33.35 72.444 34.258C71.82 34.46 71.203 33.988 71.061 33.502C70.888 32.912 71.226 32.292 71.817 32.119C74.509 31.329 76.915 30.389 78.969 29.322C79.515 29.039 80.188 29.251 80.472 29.798C80.754 30.344 80.542 31.017 79.996 31.301ZM84.752 12.69V14.463C83.025 20.821 68.373 25.976 51.222 25.976C34.066 25.976 19.412 20.818 17.691 14.458V12.69C17.691 6.688 31.461 0 51.222 0C70.982 0 84.752 6.688 84.752 12.69ZM24.614 39.727C11.042 39.727 0 50.769 0 64.341C0 77.913 11.042 88.955 24.614 88.955C38.186 88.955 49.228 77.913 49.228 64.341C49.228 50.769 38.186 39.727 24.614 39.727ZM25.868 80.045C25.399 81.064 24.504 81.799 23.413 82.063C22.354 82.321 21.173 82.069 20.308 81.388L7.466 71.329C6.457 70.51 6.436 68.516 7.245 67.185C8.514 65.093 10.614 64.604 11.949 65.573L20.066 71.936C20.528 72.338 21.295 72.129 21.754 71.551L32.382 49.817C33.19 48.197 35.476 48.206 37.083 48.941C38.708 49.684 39.708 50.997 39.026 52.827L25.868 80.045Z" fill="#984756"/>
</svg>
