<svg width="82" height="89" viewBox="0 0 82 89" fill="none" xmlns="http://www.w3.org/2000/svg">
<g clip-path="url(#clip0)">
<path fill-rule="evenodd" clip-rule="evenodd" d="M1.98311 82.3753C6.94691 84.4399 13.6081 79.7353 27.5061 81.9642C41.6402 84.2309 41.2183 88.8701 50.0659 86.2483C57.0816 84.1694 63.5097 80.1878 68.5269 76.6221C74.0545 72.6935 75.1159 70.8668 78.4119 65.4426C79.5158 63.6263 80.8297 62.7157 79.3671 61.0308C74.0067 61.1534 74.5795 67.8259 63.6646 73.1087C57.8885 75.9042 52.2563 76.6631 45.7486 75.4771L40.5397 73.8784L40.6382 72.5444C42.3849 71.4867 49.1845 69.8896 51.6656 69.1534C54.5672 68.2925 61.6677 66.9957 61.4456 64.8676C59.5488 60.5617 49.8342 64.2632 46.2795 64.7443C43.1292 65.1706 41.067 64.4539 38.7928 63.0542C33.1944 59.6087 20.9374 57.3268 16.3671 62.0189C12.7146 65.769 4.76459 65.5244 1.98184 66.3765L1.98326 82.3753H1.98311Z" fill="#AF6E51"/>
<path fill-rule="evenodd" clip-rule="evenodd" d="M1.98311 82.3752L1.9817 66.3764C4.76445 65.5244 12.7144 65.769 16.3669 62.0189C20.9373 57.3268 33.1942 59.6087 38.7926 63.0542C41.0669 64.4539 43.129 65.1705 46.2793 64.7443C49.834 64.2632 59.5487 60.5617 61.4454 64.8675C61.6677 66.9957 54.5671 68.2925 51.6654 69.1533C49.1842 69.8896 42.3848 71.4865 40.6381 72.5443L40.5395 73.8784L45.7485 75.4771C52.2561 76.6631 57.8883 75.9042 63.6645 73.1087C74.5793 67.8259 74.0066 61.1534 79.3669 61.0308C80.8294 62.7157 79.5155 63.6263 78.4118 65.4426C75.1157 70.8668 74.0544 72.6935 68.5268 76.6221C63.5095 80.1877 57.0816 84.1694 50.0657 86.2483C41.2181 88.8701 41.64 84.2308 27.506 81.9642C13.6079 79.7353 6.94691 84.4399 1.98297 82.3752H1.98311ZM62.6422 44.5695C63.167 43.2797 63.2675 43.3045 64.1224 42.3541L68.9048 43.6433C68.4101 44.241 68.9567 43.7971 68.2755 44.301C66.8226 45.375 64.1544 44.7787 62.6422 44.5697V44.5695ZM61.9127 42.3664C61.9271 41.4593 61.9223 40.7355 62.0881 39.8318C62.3163 38.589 62.5333 38.5156 62.8178 38.1321C62.9153 38.7354 63.1419 39.9238 63.1278 40.4895C63.0772 42.5018 62.2825 42.149 61.9127 42.3662V42.3664ZM65.2338 41.0648C65.9223 40.4267 66.9842 39.1729 67.8286 38.5266C69.2239 37.4592 70.0104 38.2016 71.9508 38.4452L70.3814 42.6263L65.2338 41.0648ZM64.8967 39.6185C64.3613 38.9762 64.6915 39.7158 64.337 38.5245C63.4473 35.5355 64.7768 34.4462 68.2006 33.5319C68.0458 39.2085 67.8886 35.4659 64.8967 39.6184V39.6185ZM70.523 36.7492C71.636 35.7649 73.1627 34.8302 74.6899 34.2834C74.0648 35.2572 73.421 36.0396 72.8787 37.2377L70.5232 36.7492H70.523ZM69.533 35.452C69.7005 32.2367 70.3172 32.6396 73.9079 32.6945L69.533 35.452ZM24.6244 31.7556C25.5793 30.8308 27.5169 29.7436 28.9939 28.933L30.8958 30.4156C29.6698 32.0114 26.8527 32.2656 24.6244 31.7555V31.7556ZM20.4702 27.1034C22.1121 26.6123 22.6009 25.5983 24.1832 26.1701C25.3778 26.602 26.8851 27.3157 27.558 28.1472L23.2381 30.6854C22.3926 30.0571 21.0866 28.2295 20.4703 27.1035L20.4702 27.1034ZM29.0948 24.2983C30.224 25.7121 30.6592 26.2166 31.071 28.5075C29.1822 27.8191 29.2953 26.6607 29.0948 24.2983ZM19.0554 26.1861C18.4722 25.113 17.67 24.7558 16.7009 23.9554C18.1017 23.9143 20.0831 24.4594 21.2019 25.2665L19.0554 26.1861ZM43.9957 27.6167C41.5663 26.9139 38.8591 24.9969 38.0342 23.5642C39.1966 23.8552 40.612 24.3128 41.7555 24.7227C43.2509 25.2593 43.5777 26.2685 43.9957 27.6168V27.6167ZM27.2716 22.5316L27.8833 26.4231C23.8201 24.6074 23.6114 24.7954 22.7454 21.4353C24.8347 21.5849 25.4861 21.842 27.2714 22.5316H27.2716ZM21.2352 21.4513L21.8745 23.7315L16.7405 22.0896L21.235 21.4513H21.2352ZM49.7001 19.2081C50.8804 22.6333 48.2923 26.2044 46.6854 27.7773C45.8481 27.108 45.3691 25.9252 44.75 24.8952L49.7001 19.2081ZM41.6209 22.6991C36.0513 21.1583 35.1341 21.1376 35.683 14.1466C37.0844 14.6205 39.5216 15.7714 40.0368 17.0968C40.4103 18.0574 41.4541 21.7618 41.6209 22.6991ZM43.8389 22.6451C40.0656 14.1272 42.6666 15.8824 44.198 12.3118C45.4022 12.9683 48.1448 15.9248 48.718 16.8049C48.0512 18.3269 47.1884 18.7597 46.1985 19.9817L43.8389 22.645V22.6451ZM36.1034 12.294C36.5911 9.2167 37.6124 7.87318 38.4256 5.64145L39.2598 13.8475L36.1034 12.294ZM40.4909 5.99181L43.3005 10.3598C42.8523 11.499 42.1375 12.616 41.0325 13.1985L40.4909 5.99181ZM45.2515 73.5888C43.8336 73.4757 44.9746 73.6365 44.6447 73.2117L45.3525 72.8699C47.4499 72.5398 60.1272 68.8213 61.5099 67.9586C63.7838 66.5398 63.7873 63.199 61.1718 61.7779C58.9135 60.5507 53.9435 61.2538 51.4334 61.4781C53.0789 52.8414 51.9275 54.8418 58.9262 47.3566C61.0698 45.064 60.3267 45.5924 63.7837 46.1887C72.3711 47.6702 70.6262 41.1463 76.8801 33.8717C77.7893 32.8141 77.9031 32.9161 78.5088 31.8242C75.5593 30.2432 68.3232 31.5232 65.556 32.9343C61.526 34.9895 60.5608 37.9025 60.5091 43.5061C58.6101 45.2599 55.1035 46.6574 51.6576 51.449C51.1951 52.0921 51.5906 51.6872 51.0718 52.2393C50.4682 52.8817 50.815 52.5455 50.1904 52.9911C49.4056 47.3023 47.5045 44.0872 47.333 37.8323C47.0518 27.5709 46.6233 31.8081 49.8125 26.9281C55.2249 18.6458 48.8866 14.389 46.3404 11.4751C45.1885 10.1568 43.7771 7.94742 42.7299 6.06605C41.6967 4.21031 40.908 1.74219 39.6512 0C36.7588 2.65562 33.1457 12.81 33.6537 18.1376C34.4132 26.1008 40.2531 28.1064 45.5466 30.2821L45.2266 40.4878C41.8521 35.9872 39.7697 33.4224 34.4795 30.6358C31.7202 29.1824 33.106 29.3589 31.9545 26.1433C28.3005 15.9387 13.7956 21.0861 12.3238 22.4787C13.4111 23.5607 16.0476 24.8826 17.7318 26.6357C21.84 30.9115 23.6266 35.6395 30.0948 32.6461C32.5186 31.5243 32.0557 31.6578 36.4646 34.6621C40.5698 37.4595 43.0495 39.9494 45.1654 45.693C46.8713 50.3237 49.0947 57.1208 47.1396 62.6486C39.5311 64.5135 38.4143 56.9164 23.2502 57.6036C15.9591 57.934 15.8328 60.6593 13.0482 62.0458C9.58474 63.7705 4.6324 64.2757 0.261126 64.3381L0 82.8908C2.13411 86.2173 8.44679 84.4524 12.1232 83.842C21.0058 82.3675 30.0891 83.6049 38.3443 86.8608C43.5366 88.9087 44.3607 89.8765 50.7937 87.983C60.0646 85.254 73.1561 77.4706 78.1353 69.5081C79.1193 67.9344 80.0721 66.2343 81.0549 64.7393C83.0845 61.6511 82.0479 56.0351 75.9572 60.3242C71.5181 63.4502 72.544 63.5601 69.788 66.8622C69.0732 67.7185 67.2716 68.8871 65.9599 69.716C58.6005 74.3667 54.8898 74.2164 45.2515 73.5888Z" fill="#291A13"/>
<path fill-rule="evenodd" clip-rule="evenodd" d="M43.8389 22.6451L46.1985 19.9819C47.1884 18.7597 48.0512 18.3269 48.718 16.805C48.1448 15.925 45.4021 12.9683 44.198 12.312C42.6665 15.8826 40.0656 14.1273 43.8389 22.6453V22.6451ZM61.9127 42.3664C62.2825 42.149 63.0772 42.5018 63.1278 40.4897C63.1419 39.9239 62.9155 38.7355 62.8178 38.1323C62.5333 38.5157 62.3163 38.5891 62.0881 39.8319C61.9223 40.7356 61.9271 41.4595 61.9127 42.3665V42.3664ZM31.071 28.5075C30.6591 26.2167 30.224 25.7122 29.0948 24.2983C29.2951 26.6606 29.182 27.8192 31.071 28.5075ZM19.0554 26.1863L21.2019 25.2667C20.0829 24.4596 18.1016 23.9144 16.7009 23.9555C17.67 24.756 18.4722 25.1131 19.0554 26.1863ZM70.523 36.7492L72.8785 37.2377C73.4208 36.0396 74.0647 35.2572 74.6897 34.2835C73.1626 34.83 71.6358 35.7647 70.5229 36.7492H70.523ZM16.7406 22.0898L21.8746 23.7317L21.2353 21.4515L16.7407 22.0898H16.7406ZM69.5329 35.452L73.9079 32.6945C70.3172 32.6397 69.7005 32.2367 69.5329 35.452ZM43.9956 27.6169C43.5777 26.2686 43.2509 25.2595 41.7555 24.7227C40.612 24.3128 39.1966 23.8552 38.0341 23.5642C38.8591 24.9969 41.5663 26.914 43.9956 27.6167V27.6169ZM41.0326 13.1987C42.1378 12.6163 42.8525 11.4992 43.3006 10.3599L40.491 5.99196L41.0326 13.1987ZM24.6244 31.7557C26.8527 32.2659 29.6699 32.0117 30.8958 30.4159L28.9939 28.9333C27.5169 29.7439 25.5793 30.8309 24.6244 31.7559V31.7557ZM62.6422 44.5697C64.1543 44.7787 66.8226 45.3752 68.2755 44.301C68.9568 43.7973 68.4101 44.2412 68.9048 43.6433L64.1224 42.3541C63.2675 43.3045 63.167 43.2797 62.6422 44.5695V44.5697ZM36.1035 12.2941L39.2599 13.8477L38.4258 5.6416C37.6126 7.87333 36.5912 9.21685 36.1035 12.2941ZM27.8835 26.4234L27.2717 22.5319C25.4864 21.8423 24.8348 21.5853 22.7456 21.4356C23.6117 24.7957 23.8203 24.6075 27.8836 26.4234H27.8835ZM64.8967 39.6186C67.8886 35.4662 68.0456 39.2088 68.2006 33.5322C64.7768 34.4463 63.4473 35.5358 64.337 38.5248C64.6914 39.7161 64.3613 38.9764 64.8967 39.6188V39.6186ZM65.2338 41.065L70.3814 42.6265L71.9508 38.4453C70.0105 38.2017 69.224 37.4593 67.8286 38.5267C66.9842 39.1729 65.9223 40.4267 65.2338 41.065ZM20.4703 27.1037C21.0866 28.2298 22.3926 30.0572 23.2381 30.6855L27.558 28.1474C26.8851 27.3158 25.3778 26.6021 24.1832 26.1702C22.6009 25.5984 22.1121 26.6124 20.4702 27.1035L20.4703 27.1037ZM44.75 24.8955C45.3691 25.9254 45.8483 27.1083 46.6854 27.7776C48.2923 26.2047 50.8803 22.6336 49.7001 19.2084L44.75 24.8955ZM41.6211 22.6994C41.4544 21.7621 40.4104 18.0577 40.0369 17.0971C39.5217 15.7717 37.0845 14.6208 35.6832 14.1469C35.1342 21.1379 36.0515 21.1586 41.6211 22.6994Z" fill="#059033"/>
<path fill-rule="evenodd" clip-rule="evenodd" d="M45.2515 73.5885L45.3523 72.8696L44.6446 73.2114C44.9746 73.6363 43.8335 73.4754 45.2514 73.5885H45.2515Z" fill="#71716F"/>
</g>
<defs>
<clipPath id="clip0">
<rect width="82" height="89" fill="white"/>
</clipPath>
</defs>
</svg>
