<svg width="88" height="89" viewBox="0 0 88 89" fill="none" xmlns="http://www.w3.org/2000/svg">
<circle cx="44" cy="44.7424" r="44" fill="#F3ECF9"/>
<path d="M46.5133 33.66C46.5133 34.3693 47.0915 34.9444 47.8046 34.9444C48.5178 34.9444 49.096 34.3693 49.096 33.66C49.096 32.4065 48.4483 31.2045 47.3187 30.3618C46.6024 29.8276 45.7323 29.4596 44.7915 29.2835V29.1645C44.7915 28.4551 44.2133 27.88 43.5001 27.88C42.7869 27.88 42.2087 28.4551 42.2087 29.1645V29.2836C41.2678 29.4597 40.3977 29.8277 39.6815 30.3619C38.552 31.2045 37.9042 32.4066 37.9042 33.66C37.9042 34.9135 38.5519 36.1155 39.6815 36.9582C40.3978 37.4924 41.2678 37.8604 42.2087 38.0365V41.8088C41.2092 41.4875 40.4869 40.8172 40.4869 40.0822C40.4869 39.3728 39.9087 38.7977 39.1955 38.7977C38.4823 38.7977 37.9042 39.3728 37.9042 40.0822C37.9042 41.3356 38.5519 42.5376 39.6815 43.3803C40.3978 43.9145 41.2678 44.2825 42.2087 44.4586V44.5776C42.2087 45.2869 42.7869 45.862 43.5001 45.862C44.2133 45.862 44.7915 45.2869 44.7915 44.5776V44.4584C45.7323 44.2823 46.6025 43.9144 47.3187 43.3801C48.4482 42.5375 49.096 41.3354 49.096 40.082C49.096 38.8286 48.4483 37.6265 47.3187 36.7838C46.6024 36.2496 45.7323 35.8817 44.7915 35.7055V31.9333C45.791 32.2547 46.5133 32.9249 46.5133 33.66ZM42.2087 35.3866C41.2092 35.0653 40.4869 34.395 40.4869 33.66C40.4869 32.9249 41.2092 32.2547 42.2087 31.9333V35.3866ZM46.5133 40.0821C46.5133 40.8171 45.791 41.4873 44.7915 41.8087V38.3555C45.791 38.6768 46.5133 39.347 46.5133 40.0821ZM60.6891 50.1516C60.4043 49.8211 59.9712 49.6565 59.5366 49.7146C59.1367 49.768 49.6929 51.0679 45.1756 54.919C45.0414 55.0334 44.9143 55.149 44.7914 55.2651V50.9408C52.0211 50.2896 57.7051 44.2287 57.7051 36.8711C57.7051 29.0806 51.3327 22.7424 43.5001 22.7424C35.6674 22.7424 29.295 29.0806 29.295 36.8711C29.295 44.2286 34.979 50.2896 42.2086 50.9408V55.265C42.0857 55.1489 41.9586 55.0334 41.8245 54.919C37.3072 51.0679 27.8633 49.7681 27.4635 49.7147C27.0291 49.6566 26.5958 49.8213 26.3109 50.1517C26.0261 50.4822 25.9289 50.9338 26.0529 51.3513C26.1672 51.7362 28.9031 60.82 33.4204 64.671C35.3031 66.2761 37.1926 66.7424 38.7528 66.7424C39.3545 66.7424 39.9075 66.6731 40.3919 66.5729C42.0574 66.2284 43.2116 65.4742 43.5 65.2713C43.7884 65.4742 44.9426 66.2284 46.6081 66.5729C47.0926 66.6731 47.6453 66.7424 48.2472 66.7424C49.8073 66.7424 51.6971 66.276 53.5796 64.6711C58.0969 60.82 60.8328 51.7362 60.9471 51.3513C61.0711 50.9337 60.9739 50.4821 60.6891 50.1516ZM41.7686 63.3262C41.4244 63.5289 40.744 63.8762 39.8661 64.0577C38.1594 64.4108 36.5561 63.961 35.1011 62.7205C32.3403 60.3668 30.2321 55.4059 29.2104 52.6234C32.1313 53.2021 37.3827 54.5155 40.1436 56.8692C43.0664 59.361 42.1443 62.4052 41.7686 63.3262ZM31.8778 36.871C31.8778 30.4969 37.0915 25.3112 43.5001 25.3112C49.9086 25.3112 55.1224 30.4969 55.1224 36.871C55.1224 43.2451 49.9086 48.4308 43.5001 48.4308C37.0915 48.4308 31.8778 43.2451 31.8778 36.871ZM51.8989 62.7205C51.8989 62.7206 51.8989 62.7206 51.8989 62.7205C48.9759 65.2123 46.0925 63.8402 45.235 63.3302C45.0861 62.9609 44.8453 62.239 44.7991 61.3483C44.7935 61.2402 44.791 61.133 44.7915 61.0267C44.799 59.4298 45.4926 58.032 46.8564 56.8692C49.6173 54.5155 54.8688 53.202 57.7896 52.6234C56.7679 55.406 54.6598 60.3668 51.8989 62.7205Z" fill="#9B51E0"/>
</svg>
