<svg width="88" height="89" viewBox="0 0 88 89" fill="none" xmlns="http://www.w3.org/2000/svg">
<circle cx="44" cy="44.7424" r="44" fill="#EBF7FB"/>
<path d="M45.2891 51.0112C46.7711 50.6472 47.8672 49.6933 47.8672 48.597C47.8672 47.5007 46.7711 46.5468 45.2891 46.1829V51.0112Z" fill="#56CCF2"/>
<path d="M44 30.5627C36.1813 30.5627 29.8203 36.9238 29.8203 44.7424C29.8203 52.5611 36.1813 58.9221 44 58.9221C51.8187 58.9221 58.1797 52.5611 58.1797 44.7424C58.1797 36.9238 51.8187 30.5627 44 30.5627ZM50.4453 48.5971C50.4453 51.0875 48.2274 53.17 45.2891 53.649V55.0549C45.2891 55.7674 44.7125 56.344 44 56.344C43.2875 56.344 42.7109 55.7674 42.7109 55.0549V53.649C39.7726 53.17 37.5547 51.0875 37.5547 48.5971C37.5547 47.8846 38.1312 47.308 38.8438 47.308C39.5563 47.308 40.1328 47.8846 40.1328 48.5971C40.1328 49.6934 41.2289 50.6473 42.7109 51.0112V45.9146C39.7726 45.4356 37.5547 43.3532 37.5547 40.8627C37.5547 38.3722 39.7726 36.2898 42.7109 35.8108V34.4174C42.7109 33.7049 43.2875 33.1283 44 33.1283C44.7125 33.1283 45.2891 33.7049 45.2891 34.4174V35.8108C48.2274 36.2898 50.4453 38.3722 50.4453 40.8627C50.4453 41.5752 49.8688 42.1518 49.1562 42.1518C48.4437 42.1518 47.8672 41.5752 47.8672 40.8627C47.8672 39.7664 46.7711 38.8125 45.2891 38.4485V43.5451C48.2274 44.0241 50.4453 46.1065 50.4453 48.5971Z" fill="#56CCF2"/>
<path d="M42.7109 38.4485C41.2289 38.8124 40.1328 39.7663 40.1328 40.8626C40.1328 41.9589 41.2289 42.9129 42.7109 43.2768V38.4485Z" fill="#56CCF2"/>
<path d="M44 22.7424C31.9163 22.7424 22 32.6588 22 44.7424C22 56.8261 31.9163 66.7424 44 66.7424C56.0837 66.7424 66 56.8261 66 44.7424C66 32.6588 56.0837 22.7424 44 22.7424ZM44 61.5002C34.76 61.5002 27.2422 53.9824 27.2422 44.7424C27.2422 35.5024 34.76 27.9846 44 27.9846C53.24 27.9846 60.7578 35.5024 60.7578 44.7424C60.7578 53.9824 53.24 61.5002 44 61.5002Z" fill="#56CCF2"/>
</svg>
