<svg width="97" height="98" viewBox="0 0 97 98" fill="none" xmlns="http://www.w3.org/2000/svg">
<path d="M94.0927 38.1744L91.9927 36.7744C89.7927 35.2744 88.7927 32.4744 89.4927 29.7744L90.1927 27.3744C91.1927 23.6744 88.7927 19.9744 85.0927 19.3744L82.5927 18.9744C79.8927 18.5744 77.7927 16.4744 77.2927 13.7744L76.8927 11.2744C76.2927 7.47437 72.4927 5.17437 68.7927 6.27437L66.3927 7.07437C63.7927 7.87437 60.9927 6.87436 59.3927 4.67437L57.9927 2.67437C55.7927 -0.425635 51.3927 -0.925635 48.4927 1.67437L46.6927 3.37437C44.6927 5.17437 41.6927 5.57437 39.3927 4.27437L37.1927 3.07437C33.8927 1.27437 29.6927 2.77437 28.2927 6.27437L27.3927 8.57437C26.3927 11.0744 23.8927 12.6744 21.1927 12.5744L18.6927 12.4744C14.8927 12.2744 11.7927 15.4744 11.9927 19.2744L12.1927 21.7744C12.3927 24.4744 10.7927 26.9744 8.29271 28.0744L5.99271 29.0744C2.49271 30.5744 0.992712 34.7744 2.89271 38.0744L4.09271 40.2744C5.39271 42.4744 5.09271 45.3744 3.29271 47.4744L1.59271 49.3744C-0.907288 52.1744 -0.407287 56.6744 2.69271 58.7744L4.79271 60.1744C6.99271 61.6744 7.99271 64.4744 7.29271 67.1744L6.59271 69.5744C5.59271 73.2744 7.99271 76.9744 11.6927 77.5744L14.1927 77.9744C16.8927 78.3744 18.9927 80.4744 19.4927 83.1744L19.8927 85.6744C20.4927 89.4744 24.2927 91.7744 27.9927 90.6744L30.3927 89.9744C32.9927 89.1744 35.7927 90.1744 37.3927 92.3744L38.7927 94.3744C40.9927 97.4744 45.3927 97.9744 48.2927 95.3744L50.0927 93.6744C52.0927 91.8744 55.0927 91.4744 57.3927 92.7744L59.5927 93.9744C62.8927 95.7744 67.0927 94.2744 68.4927 90.7744L69.3927 88.4744C70.3927 85.9744 72.8927 84.3744 75.5927 84.4744L78.0927 84.5744C81.8927 84.7744 84.9927 81.5744 84.7927 77.7744L84.5927 75.2744C84.3927 72.5744 85.9927 70.0744 88.4927 68.9744L90.7927 67.9744C94.2927 66.4744 95.7927 62.2744 93.8927 58.9744L92.6927 56.7744C91.3927 54.3744 91.6927 51.4744 93.4927 49.3744L95.1927 47.4744C97.6927 44.7744 97.1927 40.3744 94.0927 38.1744ZM48.3927 80.4744C30.7927 80.4744 16.3927 66.1744 16.3927 48.4744C16.3927 30.8744 30.6927 16.4744 48.3927 16.4744C66.0927 16.4744 80.3927 30.7744 80.3927 48.4744C80.3927 66.0744 65.9927 80.4744 48.3927 80.4744ZM48.3927 23.6744C34.6927 23.6744 23.5927 34.7744 23.5927 48.4744C23.5927 62.1744 34.6927 73.2744 48.3927 73.2744C62.0927 73.2744 73.1927 62.1744 73.1927 48.4744C73.1927 34.7744 62.0927 23.6744 48.3927 23.6744ZM46.7927 44.1744C47.2927 44.7744 48.1927 45.2744 49.3927 45.8744C52.3927 47.1744 54.5927 48.3744 55.9927 49.6744C57.3927 50.9744 58.0927 52.7744 58.0927 55.0744C58.0927 57.2744 57.3927 59.0744 55.9927 60.4744C54.7927 61.6744 53.1927 62.3744 51.2927 62.7744V66.0744C51.2927 66.4744 50.9927 66.8744 50.4927 66.8744H47.6927C47.2927 66.8744 46.8927 66.5744 46.8927 66.0744V62.8744C44.4927 62.5744 42.4927 61.7744 40.8927 60.2744C39.3927 58.9744 38.5927 57.0744 38.4927 54.5744C38.4927 54.0744 38.8927 53.6744 39.3927 53.6744L43.9927 53.5744C44.4927 53.5744 44.8927 53.8744 44.8927 54.3744C44.9927 55.5744 45.2927 56.4744 45.8927 56.9744C46.5927 57.6744 47.4927 58.0744 48.5927 58.0744C49.4927 58.0744 50.1927 57.7744 50.6927 57.2744C51.1927 56.7744 51.3927 55.9744 51.3927 55.1744C51.3927 54.1744 51.1927 53.3744 50.6927 52.7744C50.1927 52.1744 49.2927 51.6744 48.0927 51.0744C45.0927 49.8744 42.7927 48.6744 41.4927 47.3744C40.0927 46.1744 39.3927 44.2744 39.3927 41.8744C39.3927 39.6744 40.0927 37.8744 41.5927 36.4744C42.8927 35.1744 44.6927 34.3744 46.7927 34.0744V30.6744C46.7927 30.2744 47.0927 29.8744 47.5927 29.8744H50.3927C50.7927 29.8744 51.1927 30.1744 51.1927 30.6744V34.1744C53.1927 34.5744 54.7927 35.4744 56.0927 36.8744C57.2927 38.2744 57.8927 39.9744 58.0927 41.9744C58.0927 42.4744 57.6927 42.8744 57.1927 42.8744L52.5927 42.9744C52.0927 42.9744 51.6927 42.6744 51.6927 42.1744C51.5927 41.1744 51.3927 40.3744 50.8927 39.8744C50.3927 39.1744 49.5927 38.8744 48.6927 38.8744C47.7927 38.8744 47.0927 39.1744 46.6927 39.7744C46.2927 40.3744 45.9927 41.0744 45.9927 41.9744C46.0927 42.9744 46.2927 43.6744 46.7927 44.1744Z" fill="#575088"/>
</svg>
