<svg width="117" height="101" viewBox="0 0 117 101" fill="none" xmlns="http://www.w3.org/2000/svg">
<path d="M72.3178 21.1316C71.5892 20.3567 70.3731 20.3234 69.5996 21.052C68.826 21.7806 68.7901 22.9993 69.5187 23.7728L82.7149 37.7528L69.5187 51.7263C68.7901 52.4998 68.8248 53.7172 69.597 54.4471C69.9703 54.7973 70.4436 54.9718 70.9196 54.9718C71.4301 54.9718 71.9394 54.7691 72.3178 54.3689L86.7596 39.0754C87.4613 38.3339 87.4613 37.1755 86.7596 36.4341L72.3178 21.1316ZM46.5066 21.052C45.7331 20.3234 44.517 20.358 43.7858 21.1303L29.3453 36.4238C28.6462 37.1653 28.6449 38.3236 29.3453 39.0651L43.7871 54.3676C44.1655 54.7691 44.6748 54.9718 45.1866 54.9718C45.66 54.9718 46.1346 54.7973 46.5066 54.4471C47.2801 53.7185 47.3148 52.4998 46.5861 51.7276L33.39 37.7464L46.5849 23.7728C47.3135 23.0006 47.2789 21.7819 46.5066 21.052ZM64.5364 20.8558C63.5473 20.476 62.4313 20.9712 62.0503 21.9628L50.464 52.1599C50.0831 53.1515 50.5795 54.265 51.5711 54.646C51.7982 54.7332 52.0303 54.7742 52.26 54.7742C53.0335 54.7742 53.7634 54.3047 54.0559 53.5389L65.6421 23.3431C66.0244 22.3489 65.528 21.2355 64.5364 20.8558ZM111.591 0H4.51289C2.02554 0 0 2.02426 0 4.51289V71.3531C0 73.8405 2.02426 75.866 4.51289 75.866H46.1859V91.2917H37.1268C36.0633 91.2917 35.2026 92.1537 35.2026 93.2159V98.8551C35.2026 99.9172 36.0633 100.779 37.1268 100.779H78.9781C80.0403 100.779 80.9023 99.9172 80.9023 98.8551V93.2159C80.9023 92.1537 80.0403 91.2917 78.9781 91.2917H69.9177V75.8648H111.591C114.078 75.8648 116.104 73.8405 116.104 71.3519V4.51289C116.104 2.02426 114.079 0 111.591 0ZM77.0539 95.1401V96.9309H39.051V95.1401H77.0539ZM50.0343 91.2917V75.8981H66.0693V91.2917H50.0343ZM112.255 71.3531C112.255 71.7188 111.958 72.0176 111.591 72.0176H4.51289C4.14729 72.0176 3.8484 71.72 3.8484 71.3531V4.51289C3.8484 4.14601 4.14601 3.8484 4.51289 3.8484H111.591C111.956 3.8484 112.255 4.14601 112.255 4.51289V71.3531Z" fill="#0B0B0B"/>
</svg>
