<svg width="95" height="101" viewBox="0 0 95 101" fill="none" xmlns="http://www.w3.org/2000/svg">
<path d="M1.75926 79.1667H8.7963V87.963H12.3148V79.1667H19.3519C19.8184 79.1667 20.2659 78.9813 20.5958 78.6514C20.9258 78.3215 21.1111 77.874 21.1111 77.4074V59.8148C21.1111 59.3482 20.9258 58.9008 20.5958 58.5708C20.2659 58.2409 19.8184 58.0556 19.3519 58.0556H12.3148V49.2593H8.7963V58.0556H1.75926C1.29267 58.0556 0.845201 58.2409 0.515275 58.5708C0.18535 58.9008 0 59.3482 0 59.8148V77.4074C0 77.874 0.18535 78.3215 0.515275 78.6514C0.845201 78.9813 1.29267 79.1667 1.75926 79.1667ZM3.51852 61.5741H17.5926V75.6482H3.51852V61.5741Z" fill="#0B0B0B"/>
<path d="M33.4259 61.5741V70.3704H26.3889C25.9223 70.3704 25.4748 70.5557 25.1449 70.8857C24.815 71.2156 24.6296 71.6631 24.6296 72.1297V89.7222C24.6296 90.1888 24.815 90.6363 25.1449 90.9662C25.4748 91.2962 25.9223 91.4815 26.3889 91.4815H33.4259V100.278H36.9445V91.4815H43.9815C44.4481 91.4815 44.8955 91.2962 45.2255 90.9662C45.5554 90.6363 45.7407 90.1888 45.7407 89.7222V72.1297C45.7407 71.6631 45.5554 71.2156 45.2255 70.8857C44.8955 70.5557 44.4481 70.3704 43.9815 70.3704H36.9445V61.5741H33.4259ZM42.2222 87.963H28.1482V73.8889H42.2222V87.963Z" fill="#0B0B0B"/>
<path d="M58.0556 51.0184V59.8147H51.0185C50.552 59.8147 50.1045 60.0001 49.7746 60.33C49.4446 60.6599 49.2593 61.1074 49.2593 61.574V79.1666C49.2593 79.6332 49.4446 80.0806 49.7746 80.4106C50.1045 80.7405 50.552 80.9258 51.0185 80.9258H58.0556V89.7221H61.5741V80.9258H68.6111C69.0777 80.9258 69.5252 80.7405 69.8551 80.4106C70.185 80.0806 70.3704 79.6332 70.3704 79.1666V61.574C70.3704 61.1074 70.185 60.6599 69.8551 60.33C69.5252 60.0001 69.0777 59.8147 68.6111 59.8147H61.5741V51.0184H58.0556ZM66.8519 77.4073H52.7778V63.3332H66.8519V77.4073Z" fill="#0B0B0B"/>
<path d="M75.6482 91.4815H82.6852V100.278H86.2037V91.4815H93.2408C93.7074 91.4815 94.1548 91.2962 94.4848 90.9662C94.8147 90.6363 95 90.1888 95 89.7222V72.1297C95 71.6631 94.8147 71.2156 94.4848 70.8857C94.1548 70.5557 93.7074 70.3704 93.2408 70.3704H86.2037V61.5741H82.6852V70.3704H75.6482C75.1816 70.3704 74.7341 70.5557 74.4042 70.8857C74.0743 71.2156 73.8889 71.6631 73.8889 72.1297V89.7222C73.8889 90.1888 74.0743 90.6363 74.4042 90.9662C74.7341 91.2962 75.1816 91.4815 75.6482 91.4815ZM77.4074 73.8889H91.4815V87.963H77.4074V73.8889Z" fill="#0B0B0B"/>
<path d="M45.2304 33.4258C44.2972 33.4258 43.4023 33.0551 42.7424 32.3952C42.0826 31.7354 41.7119 30.8404 41.7119 29.9073H38.1934C38.1934 31.7736 38.9348 33.5635 40.2545 34.8832C41.5742 36.2029 43.3641 36.9443 45.2304 36.9443H45.7406V41.2193H49.2591V36.9443H49.7693C51.6356 36.9443 53.4255 36.2029 54.7452 34.8832C56.0649 33.5635 56.8063 31.7736 56.8063 29.9073C56.8063 28.0409 56.0649 26.251 54.7452 24.9313C53.4255 23.6116 51.6356 22.8702 49.7693 22.8702H49.2591V15.8332H49.7693C50.7025 15.8332 51.5974 16.2039 52.2573 16.8637C52.9171 17.5236 53.2878 18.4185 53.2878 19.3517H56.8063C56.8063 17.4854 56.0649 15.6955 54.7452 14.3758C53.4255 13.0561 51.6356 12.3147 49.7693 12.3147H49.2591V8.03967H45.7406V12.3147H45.2304C43.3641 12.3147 41.5742 13.0561 40.2545 14.3758C38.9348 15.6955 38.1934 17.4854 38.1934 19.3517C38.1934 21.218 38.9348 23.0079 40.2545 24.3276C41.5742 25.6473 43.3641 26.3887 45.2304 26.3887H45.7406V33.4258H45.2304ZM45.2304 22.8702C44.2972 22.8702 43.4023 22.4995 42.7424 21.8397C42.0826 21.1798 41.7119 20.2849 41.7119 19.3517C41.7119 18.4185 42.0826 17.5236 42.7424 16.8637C43.4023 16.2039 44.2972 15.8332 45.2304 15.8332H45.7406V22.8702H45.2304ZM49.2591 26.3887H49.7693C50.7025 26.3887 51.5974 26.7594 52.2573 27.4193C52.9171 28.0791 53.2878 28.9741 53.2878 29.9073C53.2878 30.8404 52.9171 31.7354 52.2573 32.3952C51.5974 33.0551 50.7025 33.4258 49.7693 33.4258H49.2591V26.3887Z" fill="#0B0B0B"/>
<path d="M47.5 49.2593C52.3713 49.2593 57.1332 47.8148 61.1835 45.1084C65.2338 42.4021 68.3906 38.5555 70.2548 34.055C72.119 29.5545 72.6067 24.6023 71.6564 19.8246C70.706 15.047 68.3603 10.6584 64.9158 7.21386C61.4712 3.76935 57.0827 1.4236 52.305 0.473262C47.5273 -0.477077 42.5751 0.0106716 38.0746 1.87483C33.5742 3.73899 29.7275 6.89583 27.0212 10.9461C24.3149 14.9965 22.8704 19.7584 22.8704 24.6296C22.8704 31.1618 25.4653 37.4265 30.0842 42.0454C34.7032 46.6644 40.9678 49.2593 47.5 49.2593ZM47.5 3.51853C51.6754 3.51853 55.757 4.75667 59.2287 7.07639C62.7004 9.39611 65.4063 12.6932 67.0041 16.5508C68.602 20.4083 69.02 24.6531 68.2055 28.7482C67.3909 32.8434 65.3802 36.605 62.4278 39.5574C59.4754 42.5099 55.7137 44.5205 51.6186 45.3351C47.5234 46.1497 43.2787 45.7316 39.4211 44.1338C35.5636 42.5359 32.2665 39.83 29.9467 36.3583C27.627 32.8866 26.3889 28.805 26.3889 24.6296C26.3889 19.0306 28.6131 13.6609 32.5722 9.70183C36.5313 5.74273 41.901 3.51853 47.5 3.51853Z" fill="#0B0B0B"/>
</svg>
